<?xml version="1.0" encoding="UTF-8" standalone="no"?>
<!DOCTYPE svg PUBLIC "-//W3C//DTD SVG 1.1//EN"
 "http://www.w3.org/Graphics/SVG/1.1/DTD/svg11.dtd">
<!-- Generated by graphviz version 2.43.0 (0)
 -->
<!-- Title: Program Pages: 1 -->
<svg width="565pt" height="971pt"
 viewBox="0.00 0.00 565.00 971.00" xmlns="http://www.w3.org/2000/svg" xmlns:xlink="http://www.w3.org/1999/xlink">
<g id="graph0" class="graph" transform="scale(1 1) rotate(0) translate(4 967)">
<title>Program</title>
<polygon fill="white" stroke="transparent" points="-4,4 -4,-967 561,-967 561,4 -4,4"/>
<!-- N1 -->
<g id="node1" class="node">
<title>N1</title>
<polygon fill="#93c47d" stroke="transparent" points="155,-963 93,-963 93,-888 155,-888 155,-963"/>
<polygon fill="none" stroke="#93c47d" points="93,-937.5 93,-962.5 155,-962.5 155,-937.5 93,-937.5"/>
<text text-anchor="start" x="108.5" y="-947.3" font-family="Helvetica,Arial,sans-serif" font-weight="bold" font-size="14.00">Stmt</text>
<polygon fill="none" stroke="#93c47d" points="93,-912.5 93,-937.5 155,-937.5 155,-912.5 93,-912.5"/>
<text text-anchor="start" x="98" y="-922.3" font-family="Helvetica,Arial,sans-serif" font-style="italic" font-size="14.00">Function</text>
<polygon fill="none" stroke="#93c47d" points="93,-887.5 93,-912.5 155,-912.5 155,-887.5 93,-887.5"/>
<text text-anchor="start" x="114.5" y="-896.3" font-family="Helvetica,Arial,sans-serif" font-size="14.00">fun</text>
</g>
<!-- N2 -->
<g id="node2" class="node">
<title>N2</title>
<polygon fill="#c27ba0" stroke="transparent" points="62,-852 0,-852 0,-777 62,-777 62,-852"/>
<polygon fill="none" stroke="#c27ba0" points="0,-826.5 0,-851.5 62,-851.5 62,-826.5 0,-826.5"/>
<text text-anchor="start" x="11" y="-836.3" font-family="Helvetica,Arial,sans-serif" font-weight="bold" font-size="14.00">Token</text>
<polygon fill="none" stroke="#c27ba0" points="0,-801.5 0,-826.5 62,-826.5 62,-801.5 0,-801.5"/>
<text text-anchor="start" x="5" y="-811.3" font-family="Helvetica,Arial,sans-serif" font-style="italic" font-size="14.00">Identifier</text>
<polygon fill="none" stroke="#c27ba0" points="0,-776.5 0,-801.5 62,-801.5 62,-776.5 0,-776.5"/>
<text text-anchor="start" x="23.5" y="-785.3" font-family="Helvetica,Arial,sans-serif" font-size="14.00">fib</text>
</g>
<!-- N1&#45;&gt;N2 -->
<g id="edge1" class="edge">
<title>N1&#45;&gt;N2</title>
<path fill="none" stroke="black" d="M92.77,-887.9C85.11,-878.91 76.81,-869.2 68.87,-859.89"/>
<polygon fill="black" stroke="black" points="71.46,-857.52 62.3,-852.19 66.13,-862.07 71.46,-857.52"/>
</g>
<!-- N3 -->
<g id="node3" class="node">
<title>N3</title>
<polygon fill="#eee5de" stroke="#eee5de" points="167.5,-832.5 80.5,-832.5 80.5,-796.5 167.5,-796.5 167.5,-832.5"/>
<text text-anchor="middle" x="124" y="-810.8" font-family="Helvetica,Arial,sans-serif" font-size="14.00">Parameters</text>
</g>
<!-- N1&#45;&gt;N3 -->
<g id="edge2" class="edge">
<title>N1&#45;&gt;N3</title>
<path fill="none" stroke="black" d="M124,-887.9C124,-873.16 124,-856.46 124,-842.81"/>
<polygon fill="black" stroke="black" points="127.5,-842.62 124,-832.62 120.5,-842.62 127.5,-842.62"/>
</g>
<!-- N4 -->
<g id="node4" class="node">
<title>N4</title>
<polygon fill="#6ca1a2" stroke="#6ca1a2" points="286.5,-832.5 185.5,-832.5 185.5,-796.5 286.5,-796.5 286.5,-832.5"/>
<text text-anchor="middle" x="236" y="-810.8" font-family="Helvetica,Arial,sans-serif" font-size="14.00">Function body</text>
</g>
<!-- N1&#45;&gt;N4 -->
<g id="edge3" class="edge">
<title>N1&#45;&gt;N4</title>
<path fill="none" stroke="black" d="M155.2,-894.14C172.82,-876.98 194.56,-855.83 211.04,-839.79"/>
<polygon fill="black" stroke="black" points="213.49,-842.29 218.21,-832.81 208.61,-837.28 213.49,-842.29"/>
</g>
<!-- N5 -->
<g id="node5" class="node">
<title>N5</title>
<polygon fill="#c27ba0" stroke="transparent" points="155,-741 93,-741 93,-666 155,-666 155,-741"/>
<polygon fill="none" stroke="#c27ba0" points="93,-715.5 93,-740.5 155,-740.5 155,-715.5 93,-715.5"/>
<text text-anchor="start" x="104" y="-725.3" font-family="Helvetica,Arial,sans-serif" font-weight="bold" font-size="14.00">Token</text>
<polygon fill="none" stroke="#c27ba0" points="93,-690.5 93,-715.5 155,-715.5 155,-690.5 93,-690.5"/>
<text text-anchor="start" x="98" y="-700.3" font-family="Helvetica,Arial,sans-serif" font-style="italic" font-size="14.00">Identifier</text>
<polygon fill="none" stroke="#c27ba0" points="93,-665.5 93,-690.5 155,-690.5 155,-665.5 93,-665.5"/>
<text text-anchor="start" x="120" y="-674.3" font-family="Helvetica,Arial,sans-serif" font-size="14.00">n</text>
</g>
<!-- N3&#45;&gt;N5 -->
<g id="edge4" class="edge">
<title>N3&#45;&gt;N5</title>
<path fill="none" stroke="black" d="M124,-796.47C124,-784.39 124,-767.54 124,-751.56"/>
<polygon fill="black" stroke="black" points="127.5,-751.25 124,-741.25 120.5,-751.25 127.5,-751.25"/>
</g>
<!-- N6 -->
<g id="node6" class="node">
<title>N6</title>
<polygon fill="#93c47d" stroke="transparent" points="235.5,-741 194.5,-741 194.5,-666 235.5,-666 235.5,-741"/>
<polygon fill="none" stroke="#93c47d" points="195,-715.5 195,-740.5 236,-740.5 236,-715.5 195,-715.5"/>
<text text-anchor="start" x="200" y="-725.3" font-family="Helvetica,Arial,sans-serif" font-weight="bold" font-size="14.00">Stmt</text>
<polygon fill="none" stroke="#93c47d" points="195,-690.5 195,-715.5 236,-715.5 236,-690.5 195,-690.5"/>
<text text-anchor="start" x="211.5" y="-700.3" font-family="Helvetica,Arial,sans-serif" font-style="italic" font-size="14.00">If</text>
<polygon fill="none" stroke="#93c47d" points="195,-665.5 195,-690.5 236,-690.5 236,-665.5 195,-665.5"/>
<text text-anchor="start" x="212" y="-674.3" font-family="Helvetica,Arial,sans-serif" font-size="14.00">if</text>
</g>
<!-- N4&#45;&gt;N6 -->
<g id="edge30" class="edge">
<title>N4&#45;&gt;N6</title>
<path fill="none" stroke="black" d="M232.72,-796.47C230.37,-784.27 227.08,-767.22 223.98,-751.11"/>
<polygon fill="black" stroke="black" points="227.41,-750.41 222.08,-741.25 220.54,-751.73 227.41,-750.41"/>
</g>
<!-- N15 -->
<g id="node15" class="node">
<title>N15</title>
<polygon fill="#93c47d" stroke="transparent" points="335.5,-728.5 284.5,-728.5 284.5,-678.5 335.5,-678.5 335.5,-728.5"/>
<polygon fill="none" stroke="#93c47d" points="285,-703.5 285,-728.5 336,-728.5 336,-703.5 285,-703.5"/>
<text text-anchor="start" x="295" y="-713.3" font-family="Helvetica,Arial,sans-serif" font-weight="bold" font-size="14.00">Stmt</text>
<polygon fill="none" stroke="#93c47d" points="285,-678.5 285,-703.5 336,-703.5 336,-678.5 285,-678.5"/>
<text text-anchor="start" x="290" y="-688.3" font-family="Helvetica,Arial,sans-serif" font-style="italic" font-size="14.00">Return</text>
</g>
<!-- N4&#45;&gt;N15 -->
<g id="edge31" class="edge">
<title>N4&#45;&gt;N15</title>
<path fill="none" stroke="black" d="M247.56,-796.47C258.33,-780.61 274.66,-756.56 287.92,-737.02"/>
<polygon fill="black" stroke="black" points="290.86,-738.93 293.58,-728.69 285.06,-735 290.86,-738.93"/>
</g>
<!-- N7 -->
<g id="node7" class="node">
<title>N7</title>
<polygon fill="#9fc5e8" stroke="transparent" points="166.5,-630 117.5,-630 117.5,-555 166.5,-555 166.5,-630"/>
<polygon fill="none" stroke="#9fc5e8" points="118,-604.5 118,-629.5 167,-629.5 167,-604.5 118,-604.5"/>
<text text-anchor="start" x="127" y="-614.3" font-family="Helvetica,Arial,sans-serif" font-weight="bold" font-size="14.00">Expr</text>
<polygon fill="none" stroke="#9fc5e8" points="118,-579.5 118,-604.5 167,-604.5 167,-579.5 118,-579.5"/>
<text text-anchor="start" x="123" y="-589.3" font-family="Helvetica,Arial,sans-serif" font-style="italic" font-size="14.00">Binary</text>
<polygon fill="none" stroke="#9fc5e8" points="118,-554.5 118,-579.5 167,-579.5 167,-554.5 118,-554.5"/>
<text text-anchor="start" x="138" y="-563.3" font-family="Helvetica,Arial,sans-serif" font-size="14.00">&lt;</text>
</g>
<!-- N6&#45;&gt;N7 -->
<g id="edge11" class="edge">
<title>N6&#45;&gt;N7</title>
<path fill="none" stroke="black" d="M194.47,-671.85C187.55,-661.51 179.67,-649.75 172.16,-638.54"/>
<polygon fill="black" stroke="black" points="174.99,-636.47 166.51,-630.1 169.17,-640.36 174.99,-636.47"/>
</g>
<!-- N11 -->
<g id="node11" class="node">
<title>N11</title>
<polygon fill="#93c47d" stroke="transparent" points="237,-617.5 193,-617.5 193,-567.5 237,-567.5 237,-617.5"/>
<polygon fill="none" stroke="#93c47d" points="193,-592.5 193,-617.5 237,-617.5 237,-592.5 193,-592.5"/>
<text text-anchor="start" x="199.5" y="-602.3" font-family="Helvetica,Arial,sans-serif" font-weight="bold" font-size="14.00">Stmt</text>
<polygon fill="none" stroke="#93c47d" points="193,-567.5 193,-592.5 237,-592.5 237,-567.5 193,-567.5"/>
<text text-anchor="start" x="198" y="-577.3" font-family="Helvetica,Arial,sans-serif" font-style="italic" font-size="14.00">Block</text>
</g>
<!-- N6&#45;&gt;N11 -->
<g id="edge12" class="edge">
<title>N6&#45;&gt;N11</title>
<path fill="none" stroke="black" d="M215,-665.9C215,-653.66 215,-640.05 215,-627.98"/>
<polygon fill="black" stroke="black" points="218.5,-627.83 215,-617.83 211.5,-627.83 218.5,-627.83"/>
</g>
<!-- N8 -->
<g id="node8" class="node">
<title>N8</title>
<polygon fill="#9fc5e8" stroke="transparent" points="94.5,-506.5 35.5,-506.5 35.5,-456.5 94.5,-456.5 94.5,-506.5"/>
<polygon fill="none" stroke="#9fc5e8" points="36,-481.5 36,-506.5 95,-506.5 95,-481.5 36,-481.5"/>
<text text-anchor="start" x="50" y="-491.3" font-family="Helvetica,Arial,sans-serif" font-weight="bold" font-size="14.00">Expr</text>
<polygon fill="none" stroke="#9fc5e8" points="36,-456.5 36,-481.5 95,-481.5 95,-456.5 36,-456.5"/>
<text text-anchor="start" x="41" y="-466.3" font-family="Helvetica,Arial,sans-serif" font-style="italic" font-size="14.00">Variable</text>
</g>
<!-- N7&#45;&gt;N8 -->
<g id="edge6" class="edge">
<title>N7&#45;&gt;N8</title>
<path fill="none" stroke="black" d="M117.43,-556.71C107.97,-543.32 97.21,-528.1 87.91,-514.94"/>
<polygon fill="black" stroke="black" points="90.67,-512.77 82.04,-506.63 84.95,-516.81 90.67,-512.77"/>
</g>
<!-- N10 -->
<g id="node10" class="node">
<title>N10</title>
<polygon fill="#ffcc60" stroke="transparent" points="171.5,-519 112.5,-519 112.5,-444 171.5,-444 171.5,-519"/>
<polygon fill="none" stroke="#ffcc60" points="113,-493.5 113,-518.5 172,-518.5 172,-493.5 113,-493.5"/>
<text text-anchor="start" x="122" y="-503.3" font-family="Helvetica,Arial,sans-serif" font-weight="bold" font-size="14.00">Literal</text>
<polygon fill="none" stroke="#ffcc60" points="113,-468.5 113,-493.5 172,-493.5 172,-468.5 113,-468.5"/>
<text text-anchor="start" x="118" y="-478.3" font-family="Helvetica,Arial,sans-serif" font-style="italic" font-size="14.00">Number</text>
<polygon fill="none" stroke="#ffcc60" points="113,-443.5 113,-468.5 172,-468.5 172,-443.5 113,-443.5"/>
<text text-anchor="start" x="138.5" y="-452.3" font-family="Helvetica,Arial,sans-serif" font-size="14.00">2</text>
</g>
<!-- N7&#45;&gt;N10 -->
<g id="edge7" class="edge">
<title>N7&#45;&gt;N10</title>
<path fill="none" stroke="black" d="M142,-554.9C142,-546.72 142,-537.94 142,-529.41"/>
<polygon fill="black" stroke="black" points="145.5,-529.19 142,-519.19 138.5,-529.19 145.5,-529.19"/>
</g>
<!-- N9 -->
<g id="node9" class="node">
<title>N9</title>
<polygon fill="#c27ba0" stroke="transparent" points="96,-408 34,-408 34,-333 96,-333 96,-408"/>
<polygon fill="none" stroke="#c27ba0" points="34,-382.5 34,-407.5 96,-407.5 96,-382.5 34,-382.5"/>
<text text-anchor="start" x="45" y="-392.3" font-family="Helvetica,Arial,sans-serif" font-weight="bold" font-size="14.00">Token</text>
<polygon fill="none" stroke="#c27ba0" points="34,-357.5 34,-382.5 96,-382.5 96,-357.5 34,-357.5"/>
<text text-anchor="start" x="39" y="-367.3" font-family="Helvetica,Arial,sans-serif" font-style="italic" font-size="14.00">Identifier</text>
<polygon fill="none" stroke="#c27ba0" points="34,-332.5 34,-357.5 96,-357.5 96,-332.5 34,-332.5"/>
<text text-anchor="start" x="61" y="-341.3" font-family="Helvetica,Arial,sans-serif" font-size="14.00">n</text>
</g>
<!-- N8&#45;&gt;N9 -->
<g id="edge5" class="edge">
<title>N8&#45;&gt;N9</title>
<path fill="none" stroke="black" d="M65,-456.31C65,-445.12 65,-431.44 65,-418.36"/>
<polygon fill="black" stroke="black" points="68.5,-418.06 65,-408.06 61.5,-418.06 68.5,-418.06"/>
</g>
<!-- N12 -->
<g id="node12" class="node">
<title>N12</title>
<polygon fill="#93c47d" stroke="transparent" points="240.5,-506.5 189.5,-506.5 189.5,-456.5 240.5,-456.5 240.5,-506.5"/>
<polygon fill="none" stroke="#93c47d" points="190,-481.5 190,-506.5 241,-506.5 241,-481.5 190,-481.5"/>
<text text-anchor="start" x="200" y="-491.3" font-family="Helvetica,Arial,sans-serif" font-weight="bold" font-size="14.00">Stmt</text>
<polygon fill="none" stroke="#93c47d" points="190,-456.5 190,-481.5 241,-481.5 241,-456.5 190,-456.5"/>
<text text-anchor="start" x="195" y="-466.3" font-family="Helvetica,Arial,sans-serif" font-style="italic" font-size="14.00">Return</text>
</g>
<!-- N11&#45;&gt;N12 -->
<g id="edge10" class="edge">
<title>N11&#45;&gt;N12</title>
<path fill="none" stroke="black" d="M215,-567.31C215,-552.49 215,-533.29 215,-516.91"/>
<polygon fill="black" stroke="black" points="218.5,-516.62 215,-506.62 211.5,-516.62 218.5,-516.62"/>
</g>
<!-- N13 -->
<g id="node13" class="node">
<title>N13</title>
<polygon fill="#9fc5e8" stroke="transparent" points="199.5,-395.5 140.5,-395.5 140.5,-345.5 199.5,-345.5 199.5,-395.5"/>
<polygon fill="none" stroke="#9fc5e8" points="141,-370.5 141,-395.5 200,-395.5 200,-370.5 141,-370.5"/>
<text text-anchor="start" x="155" y="-380.3" font-family="Helvetica,Arial,sans-serif" font-weight="bold" font-size="14.00">Expr</text>
<polygon fill="none" stroke="#9fc5e8" points="141,-345.5 141,-370.5 200,-370.5 200,-345.5 141,-345.5"/>
<text text-anchor="start" x="146" y="-355.3" font-family="Helvetica,Arial,sans-serif" font-style="italic" font-size="14.00">Variable</text>
</g>
<!-- N12&#45;&gt;N13 -->
<g id="edge9" class="edge">
<title>N12&#45;&gt;N13</title>
<path fill="none" stroke="black" d="M205.01,-456.31C198.78,-441.21 190.67,-421.56 183.82,-404.98"/>
<polygon fill="black" stroke="black" points="187.01,-403.53 179.96,-395.62 180.54,-406.2 187.01,-403.53"/>
</g>
<!-- N14 -->
<g id="node14" class="node">
<title>N14</title>
<polygon fill="#c27ba0" stroke="transparent" points="201,-297 139,-297 139,-222 201,-222 201,-297"/>
<polygon fill="none" stroke="#c27ba0" points="139,-271.5 139,-296.5 201,-296.5 201,-271.5 139,-271.5"/>
<text text-anchor="start" x="150" y="-281.3" font-family="Helvetica,Arial,sans-serif" font-weight="bold" font-size="14.00">Token</text>
<polygon fill="none" stroke="#c27ba0" points="139,-246.5 139,-271.5 201,-271.5 201,-246.5 139,-246.5"/>
<text text-anchor="start" x="144" y="-256.3" font-family="Helvetica,Arial,sans-serif" font-style="italic" font-size="14.00">Identifier</text>
<polygon fill="none" stroke="#c27ba0" points="139,-221.5 139,-246.5 201,-246.5 201,-221.5 139,-221.5"/>
<text text-anchor="start" x="166" y="-230.3" font-family="Helvetica,Arial,sans-serif" font-size="14.00">n</text>
</g>
<!-- N13&#45;&gt;N14 -->
<g id="edge8" class="edge">
<title>N13&#45;&gt;N14</title>
<path fill="none" stroke="black" d="M170,-345.31C170,-334.12 170,-320.44 170,-307.36"/>
<polygon fill="black" stroke="black" points="173.5,-307.06 170,-297.06 166.5,-307.06 173.5,-307.06"/>
</g>
<!-- N16 -->
<g id="node16" class="node">
<title>N16</title>
<polygon fill="#9fc5e8" stroke="transparent" points="356.5,-630 307.5,-630 307.5,-555 356.5,-555 356.5,-630"/>
<polygon fill="none" stroke="#9fc5e8" points="308,-604.5 308,-629.5 357,-629.5 357,-604.5 308,-604.5"/>
<text text-anchor="start" x="317" y="-614.3" font-family="Helvetica,Arial,sans-serif" font-weight="bold" font-size="14.00">Expr</text>
<polygon fill="none" stroke="#9fc5e8" points="308,-579.5 308,-604.5 357,-604.5 357,-579.5 308,-579.5"/>
<text text-anchor="start" x="313" y="-589.3" font-family="Helvetica,Arial,sans-serif" font-style="italic" font-size="14.00">Binary</text>
<polygon fill="none" stroke="#9fc5e8" points="308,-554.5 308,-579.5 357,-579.5 357,-554.5 308,-554.5"/>
<text text-anchor="start" x="328" y="-563.3" font-family="Helvetica,Arial,sans-serif" font-size="14.00">+</text>
</g>
<!-- N15&#45;&gt;N16 -->
<g id="edge29" class="edge">
<title>N15&#45;&gt;N16</title>
<path fill="none" stroke="black" d="M314.88,-678.31C317.16,-667.01 319.96,-653.17 322.62,-639.97"/>
<polygon fill="black" stroke="black" points="326.07,-640.55 324.62,-630.06 319.21,-639.17 326.07,-640.55"/>
</g>
<!-- N17 -->
<g id="node17" class="node">
<title>N17</title>
<polygon fill="#9fc5e8" stroke="transparent" points="352.5,-506.5 311.5,-506.5 311.5,-456.5 352.5,-456.5 352.5,-506.5"/>
<polygon fill="none" stroke="#9fc5e8" points="312,-481.5 312,-506.5 353,-506.5 353,-481.5 312,-481.5"/>
<text text-anchor="start" x="317" y="-491.3" font-family="Helvetica,Arial,sans-serif" font-weight="bold" font-size="14.00">Expr</text>
<polygon fill="none" stroke="#9fc5e8" points="312,-456.5 312,-481.5 353,-481.5 353,-456.5 312,-456.5"/>
<text text-anchor="start" x="320.5" y="-466.3" font-family="Helvetica,Arial,sans-serif" font-style="italic" font-size="14.00">Call</text>
</g>
<!-- N16&#45;&gt;N17 -->
<g id="edge27" class="edge">
<title>N16&#45;&gt;N17</title>
<path fill="none" stroke="black" d="M332,-554.9C332,-542.66 332,-529.05 332,-516.98"/>
<polygon fill="black" stroke="black" points="335.5,-516.83 332,-506.83 328.5,-516.83 335.5,-516.83"/>
</g>
<!-- N25 -->
<g id="node25" class="node">
<title>N25</title>
<polygon fill="#9fc5e8" stroke="transparent" points="457.5,-506.5 416.5,-506.5 416.5,-456.5 457.5,-456.5 457.5,-506.5"/>
<polygon fill="none" stroke="#9fc5e8" points="417,-481.5 417,-506.5 458,-506.5 458,-481.5 417,-481.5"/>
<text text-anchor="start" x="422" y="-491.3" font-family="Helvetica,Arial,sans-serif" font-weight="bold" font-size="14.00">Expr</text>
<polygon fill="none" stroke="#9fc5e8" points="417,-456.5 417,-481.5 458,-481.5 458,-456.5 417,-456.5"/>
<text text-anchor="start" x="425.5" y="-466.3" font-family="Helvetica,Arial,sans-serif" font-style="italic" font-size="14.00">Call</text>
</g>
<!-- N16&#45;&gt;N25 -->
<g id="edge28" class="edge">
<title>N16&#45;&gt;N25</title>
<path fill="none" stroke="black" d="M356.62,-565.94C372.39,-549.57 392.88,-528.3 409.23,-511.32"/>
<polygon fill="black" stroke="black" points="412,-513.49 416.42,-503.86 406.96,-508.64 412,-513.49"/>
</g>
<!-- N18 -->
<g id="node18" class="node">
<title>N18</title>
<polygon fill="#a88f85" stroke="#a88f85" points="300.5,-388.5 217.5,-388.5 217.5,-352.5 300.5,-352.5 300.5,-388.5"/>
<text text-anchor="middle" x="259" y="-366.8" font-family="Helvetica,Arial,sans-serif" font-size="14.00">Arguments</text>
</g>
<!-- N17&#45;&gt;N18 -->
<g id="edge14" class="edge">
<title>N17&#45;&gt;N18</title>
<path fill="none" stroke="black" d="M315.8,-456.31C304.07,-438.79 288.23,-415.15 276.26,-397.27"/>
<polygon fill="black" stroke="black" points="278.87,-394.88 270.4,-388.52 273.05,-398.77 278.87,-394.88"/>
</g>
<!-- N19 -->
<g id="node19" class="node">
<title>N19</title>
<polygon fill="#9fc5e8" stroke="transparent" points="377.5,-395.5 318.5,-395.5 318.5,-345.5 377.5,-345.5 377.5,-395.5"/>
<polygon fill="none" stroke="#9fc5e8" points="319,-370.5 319,-395.5 378,-395.5 378,-370.5 319,-370.5"/>
<text text-anchor="start" x="333" y="-380.3" font-family="Helvetica,Arial,sans-serif" font-weight="bold" font-size="14.00">Expr</text>
<polygon fill="none" stroke="#9fc5e8" points="319,-345.5 319,-370.5 378,-370.5 378,-345.5 319,-345.5"/>
<text text-anchor="start" x="324" y="-355.3" font-family="Helvetica,Arial,sans-serif" font-style="italic" font-size="14.00">Variable</text>
</g>
<!-- N17&#45;&gt;N19 -->
<g id="edge15" class="edge">
<title>N17&#45;&gt;N19</title>
<path fill="none" stroke="black" d="M335.55,-456.31C337.73,-441.49 340.54,-422.29 342.95,-405.91"/>
<polygon fill="black" stroke="black" points="346.47,-406.03 344.46,-395.62 339.54,-405.01 346.47,-406.03"/>
</g>
<!-- N21 -->
<g id="node21" class="node">
<title>N21</title>
<polygon fill="#9fc5e8" stroke="transparent" points="283.5,-297 234.5,-297 234.5,-222 283.5,-222 283.5,-297"/>
<polygon fill="none" stroke="#9fc5e8" points="235,-271.5 235,-296.5 284,-296.5 284,-271.5 235,-271.5"/>
<text text-anchor="start" x="244" y="-281.3" font-family="Helvetica,Arial,sans-serif" font-weight="bold" font-size="14.00">Expr</text>
<polygon fill="none" stroke="#9fc5e8" points="235,-246.5 235,-271.5 284,-271.5 284,-246.5 235,-246.5"/>
<text text-anchor="start" x="240" y="-256.3" font-family="Helvetica,Arial,sans-serif" font-style="italic" font-size="14.00">Binary</text>
<polygon fill="none" stroke="#9fc5e8" points="235,-221.5 235,-246.5 284,-246.5 284,-221.5 235,-221.5"/>
<text text-anchor="start" x="257" y="-230.3" font-family="Helvetica,Arial,sans-serif" font-size="14.00">&#45;</text>
</g>
<!-- N18&#45;&gt;N21 -->
<g id="edge19" class="edge">
<title>N18&#45;&gt;N21</title>
<path fill="none" stroke="black" d="M259,-352.47C259,-340.39 259,-323.54 259,-307.56"/>
<polygon fill="black" stroke="black" points="262.5,-307.25 259,-297.25 255.5,-307.25 262.5,-307.25"/>
</g>
<!-- N20 -->
<g id="node20" class="node">
<title>N20</title>
<polygon fill="#c27ba0" stroke="transparent" points="379,-297 317,-297 317,-222 379,-222 379,-297"/>
<polygon fill="none" stroke="#c27ba0" points="317,-271.5 317,-296.5 379,-296.5 379,-271.5 317,-271.5"/>
<text text-anchor="start" x="328" y="-281.3" font-family="Helvetica,Arial,sans-serif" font-weight="bold" font-size="14.00">Token</text>
<polygon fill="none" stroke="#c27ba0" points="317,-246.5 317,-271.5 379,-271.5 379,-246.5 317,-246.5"/>
<text text-anchor="start" x="322" y="-256.3" font-family="Helvetica,Arial,sans-serif" font-style="italic" font-size="14.00">Identifier</text>
<polygon fill="none" stroke="#c27ba0" points="317,-221.5 317,-246.5 379,-246.5 379,-221.5 317,-221.5"/>
<text text-anchor="start" x="340.5" y="-230.3" font-family="Helvetica,Arial,sans-serif" font-size="14.00">fib</text>
</g>
<!-- N19&#45;&gt;N20 -->
<g id="edge13" class="edge">
<title>N19&#45;&gt;N20</title>
<path fill="none" stroke="black" d="M348,-345.31C348,-334.12 348,-320.44 348,-307.36"/>
<polygon fill="black" stroke="black" points="351.5,-307.06 348,-297.06 344.5,-307.06 351.5,-307.06"/>
</g>
<!-- N22 -->
<g id="node22" class="node">
<title>N22</title>
<polygon fill="#9fc5e8" stroke="transparent" points="256.5,-173.5 197.5,-173.5 197.5,-123.5 256.5,-123.5 256.5,-173.5"/>
<polygon fill="none" stroke="#9fc5e8" points="198,-148.5 198,-173.5 257,-173.5 257,-148.5 198,-148.5"/>
<text text-anchor="start" x="212" y="-158.3" font-family="Helvetica,Arial,sans-serif" font-weight="bold" font-size="14.00">Expr</text>
<polygon fill="none" stroke="#9fc5e8" points="198,-123.5 198,-148.5 257,-148.5 257,-123.5 198,-123.5"/>
<text text-anchor="start" x="203" y="-133.3" font-family="Helvetica,Arial,sans-serif" font-style="italic" font-size="14.00">Variable</text>
</g>
<!-- N21&#45;&gt;N22 -->
<g id="edge17" class="edge">
<title>N21&#45;&gt;N22</title>
<path fill="none" stroke="black" d="M248.26,-221.9C244.62,-209.53 240.59,-195.78 237.01,-183.61"/>
<polygon fill="black" stroke="black" points="240.32,-182.44 234.14,-173.83 233.6,-184.41 240.32,-182.44"/>
</g>
<!-- N24 -->
<g id="node24" class="node">
<title>N24</title>
<polygon fill="#ffcc60" stroke="transparent" points="333.5,-186 274.5,-186 274.5,-111 333.5,-111 333.5,-186"/>
<polygon fill="none" stroke="#ffcc60" points="275,-160.5 275,-185.5 334,-185.5 334,-160.5 275,-160.5"/>
<text text-anchor="start" x="284" y="-170.3" font-family="Helvetica,Arial,sans-serif" font-weight="bold" font-size="14.00">Literal</text>
<polygon fill="none" stroke="#ffcc60" points="275,-135.5 275,-160.5 334,-160.5 334,-135.5 275,-135.5"/>
<text text-anchor="start" x="280" y="-145.3" font-family="Helvetica,Arial,sans-serif" font-style="italic" font-size="14.00">Number</text>
<polygon fill="none" stroke="#ffcc60" points="275,-110.5 275,-135.5 334,-135.5 334,-110.5 275,-110.5"/>
<text text-anchor="start" x="300.5" y="-119.3" font-family="Helvetica,Arial,sans-serif" font-size="14.00">2</text>
</g>
<!-- N21&#45;&gt;N24 -->
<g id="edge18" class="edge">
<title>N21&#45;&gt;N24</title>
<path fill="none" stroke="black" d="M274.11,-221.9C277.6,-213.45 281.35,-204.36 284.98,-195.57"/>
<polygon fill="black" stroke="black" points="288.27,-196.77 288.85,-186.19 281.8,-194.1 288.27,-196.77"/>
</g>
<!-- N23 -->
<g id="node23" class="node">
<title>N23</title>
<polygon fill="#c27ba0" stroke="transparent" points="258,-75 196,-75 196,0 258,0 258,-75"/>
<polygon fill="none" stroke="#c27ba0" points="196,-49.5 196,-74.5 258,-74.5 258,-49.5 196,-49.5"/>
<text text-anchor="start" x="207" y="-59.3" font-family="Helvetica,Arial,sans-serif" font-weight="bold" font-size="14.00">Token</text>
<polygon fill="none" stroke="#c27ba0" points="196,-24.5 196,-49.5 258,-49.5 258,-24.5 196,-24.5"/>
<text text-anchor="start" x="201" y="-34.3" font-family="Helvetica,Arial,sans-serif" font-style="italic" font-size="14.00">Identifier</text>
<polygon fill="none" stroke="#c27ba0" points="196,0.5 196,-24.5 258,-24.5 258,0.5 196,0.5"/>
<text text-anchor="start" x="223" y="-8.3" font-family="Helvetica,Arial,sans-serif" font-size="14.00">n</text>
</g>
<!-- N22&#45;&gt;N23 -->
<g id="edge16" class="edge">
<title>N22&#45;&gt;N23</title>
<path fill="none" stroke="black" d="M227,-123.31C227,-112.12 227,-98.44 227,-85.36"/>
<polygon fill="black" stroke="black" points="230.5,-85.06 227,-75.06 223.5,-85.06 230.5,-85.06"/>
</g>
<!-- N26 -->
<g id="node26" class="node">
<title>N26</title>
<polygon fill="#a88f85" stroke="#a88f85" points="478.5,-388.5 395.5,-388.5 395.5,-352.5 478.5,-352.5 478.5,-388.5"/>
<text text-anchor="middle" x="437" y="-366.8" font-family="Helvetica,Arial,sans-serif" font-size="14.00">Arguments</text>
</g>
<!-- N25&#45;&gt;N26 -->
<g id="edge21" class="edge">
<title>N25&#45;&gt;N26</title>
<path fill="none" stroke="black" d="M437,-456.31C437,-439.27 437,-416.44 437,-398.76"/>
<polygon fill="black" stroke="black" points="440.5,-398.52 437,-388.52 433.5,-398.52 440.5,-398.52"/>
</g>
<!-- N27 -->
<g id="node27" class="node">
<title>N27</title>
<polygon fill="#9fc5e8" stroke="transparent" points="555.5,-395.5 496.5,-395.5 496.5,-345.5 555.5,-345.5 555.5,-395.5"/>
<polygon fill="none" stroke="#9fc5e8" points="497,-370.5 497,-395.5 556,-395.5 556,-370.5 497,-370.5"/>
<text text-anchor="start" x="511" y="-380.3" font-family="Helvetica,Arial,sans-serif" font-weight="bold" font-size="14.00">Expr</text>
<polygon fill="none" stroke="#9fc5e8" points="497,-345.5 497,-370.5 556,-370.5 556,-345.5 497,-345.5"/>
<text text-anchor="start" x="502" y="-355.3" font-family="Helvetica,Arial,sans-serif" font-style="italic" font-size="14.00">Variable</text>
</g>
<!-- N25&#45;&gt;N27 -->
<g id="edge22" class="edge">
<title>N25&#45;&gt;N27</title>
<path fill="none" stroke="black" d="M456.75,-456.31C469.43,-440.79 486.03,-420.45 499.8,-403.59"/>
<polygon fill="black" stroke="black" points="502.69,-405.58 506.3,-395.62 497.27,-401.16 502.69,-405.58"/>
</g>
<!-- N29 -->
<g id="node29" class="node">
<title>N29</title>
<polygon fill="#9fc5e8" stroke="transparent" points="461.5,-297 412.5,-297 412.5,-222 461.5,-222 461.5,-297"/>
<polygon fill="none" stroke="#9fc5e8" points="413,-271.5 413,-296.5 462,-296.5 462,-271.5 413,-271.5"/>
<text text-anchor="start" x="422" y="-281.3" font-family="Helvetica,Arial,sans-serif" font-weight="bold" font-size="14.00">Expr</text>
<polygon fill="none" stroke="#9fc5e8" points="413,-246.5 413,-271.5 462,-271.5 462,-246.5 413,-246.5"/>
<text text-anchor="start" x="418" y="-256.3" font-family="Helvetica,Arial,sans-serif" font-style="italic" font-size="14.00">Binary</text>
<polygon fill="none" stroke="#9fc5e8" points="413,-221.5 413,-246.5 462,-246.5 462,-221.5 413,-221.5"/>
<text text-anchor="start" x="435" y="-230.3" font-family="Helvetica,Arial,sans-serif" font-size="14.00">&#45;</text>
</g>
<!-- N26&#45;&gt;N29 -->
<g id="edge26" class="edge">
<title>N26&#45;&gt;N29</title>
<path fill="none" stroke="black" d="M437,-352.47C437,-340.39 437,-323.54 437,-307.56"/>
<polygon fill="black" stroke="black" points="440.5,-307.25 437,-297.25 433.5,-307.25 440.5,-307.25"/>
</g>
<!-- N28 -->
<g id="node28" class="node">
<title>N28</title>
<polygon fill="#c27ba0" stroke="transparent" points="557,-297 495,-297 495,-222 557,-222 557,-297"/>
<polygon fill="none" stroke="#c27ba0" points="495,-271.5 495,-296.5 557,-296.5 557,-271.5 495,-271.5"/>
<text text-anchor="start" x="506" y="-281.3" font-family="Helvetica,Arial,sans-serif" font-weight="bold" font-size="14.00">Token</text>
<polygon fill="none" stroke="#c27ba0" points="495,-246.5 495,-271.5 557,-271.5 557,-246.5 495,-246.5"/>
<text text-anchor="start" x="500" y="-256.3" font-family="Helvetica,Arial,sans-serif" font-style="italic" font-size="14.00">Identifier</text>
<polygon fill="none" stroke="#c27ba0" points="495,-221.5 495,-246.5 557,-246.5 557,-221.5 495,-221.5"/>
<text text-anchor="start" x="518.5" y="-230.3" font-family="Helvetica,Arial,sans-serif" font-size="14.00">fib</text>
</g>
<!-- N27&#45;&gt;N28 -->
<g id="edge20" class="edge">
<title>N27&#45;&gt;N28</title>
<path fill="none" stroke="black" d="M526,-345.31C526,-334.12 526,-320.44 526,-307.36"/>
<polygon fill="black" stroke="black" points="529.5,-307.06 526,-297.06 522.5,-307.06 529.5,-307.06"/>
</g>
<!-- N30 -->
<g id="node30" class="node">
<title>N30</title>
<polygon fill="#9fc5e8" stroke="transparent" points="422.5,-173.5 363.5,-173.5 363.5,-123.5 422.5,-123.5 422.5,-173.5"/>
<polygon fill="none" stroke="#9fc5e8" points="364,-148.5 364,-173.5 423,-173.5 423,-148.5 364,-148.5"/>
<text text-anchor="start" x="378" y="-158.3" font-family="Helvetica,Arial,sans-serif" font-weight="bold" font-size="14.00">Expr</text>
<polygon fill="none" stroke="#9fc5e8" points="364,-123.5 364,-148.5 423,-148.5 423,-123.5 364,-123.5"/>
<text text-anchor="start" x="369" y="-133.3" font-family="Helvetica,Arial,sans-serif" font-style="italic" font-size="14.00">Variable</text>
</g>
<!-- N29&#45;&gt;N30 -->
<g id="edge24" class="edge">
<title>N29&#45;&gt;N30</title>
<path fill="none" stroke="black" d="M422.23,-221.9C417.18,-209.41 411.57,-195.5 406.62,-183.25"/>
<polygon fill="black" stroke="black" points="409.81,-181.79 402.82,-173.83 403.32,-184.41 409.81,-181.79"/>
</g>
<!-- N32 -->
<g id="node32" class="node">
<title>N32</title>
<polygon fill="#ffcc60" stroke="transparent" points="499.5,-186 440.5,-186 440.5,-111 499.5,-111 499.5,-186"/>
<polygon fill="none" stroke="#ffcc60" points="441,-160.5 441,-185.5 500,-185.5 500,-160.5 441,-160.5"/>
<text text-anchor="start" x="450" y="-170.3" font-family="Helvetica,Arial,sans-serif" font-weight="bold" font-size="14.00">Literal</text>
<polygon fill="none" stroke="#ffcc60" points="441,-135.5 441,-160.5 500,-160.5 500,-135.5 441,-135.5"/>
<text text-anchor="start" x="446" y="-145.3" font-family="Helvetica,Arial,sans-serif" font-style="italic" font-size="14.00">Number</text>
<polygon fill="none" stroke="#ffcc60" points="441,-110.5 441,-135.5 500,-135.5 500,-110.5 441,-110.5"/>
<text text-anchor="start" x="466.5" y="-119.3" font-family="Helvetica,Arial,sans-serif" font-size="14.00">1</text>
</g>
<!-- N29&#45;&gt;N32 -->
<g id="edge25" class="edge">
<title>N29&#45;&gt;N32</title>
<path fill="none" stroke="black" d="M448.08,-221.9C450.61,-213.54 453.33,-204.55 455.97,-195.85"/>
<polygon fill="black" stroke="black" points="459.34,-196.77 458.89,-186.19 452.65,-194.74 459.34,-196.77"/>
</g>
<!-- N31 -->
<g id="node31" class="node">
<title>N31</title>
<polygon fill="#c27ba0" stroke="transparent" points="424,-75 362,-75 362,0 424,0 424,-75"/>
<polygon fill="none" stroke="#c27ba0" points="362,-49.5 362,-74.5 424,-74.5 424,-49.5 362,-49.5"/>
<text text-anchor="start" x="373" y="-59.3" font-family="Helvetica,Arial,sans-serif" font-weight="bold" font-size="14.00">Token</text>
<polygon fill="none" stroke="#c27ba0" points="362,-24.5 362,-49.5 424,-49.5 424,-24.5 362,-24.5"/>
<text text-anchor="start" x="367" y="-34.3" font-family="Helvetica,Arial,sans-serif" font-style="italic" font-size="14.00">Identifier</text>
<polygon fill="none" stroke="#c27ba0" points="362,0.5 362,-24.5 424,-24.5 424,0.5 362,0.5"/>
<text text-anchor="start" x="389" y="-8.3" font-family="Helvetica,Arial,sans-serif" font-size="14.00">n</text>
</g>
<!-- N30&#45;&gt;N31 -->
<g id="edge23" class="edge">
<title>N30&#45;&gt;N31</title>
<path fill="none" stroke="black" d="M393,-123.31C393,-112.12 393,-98.44 393,-85.36"/>
<polygon fill="black" stroke="black" points="396.5,-85.06 393,-75.06 389.5,-85.06 396.5,-85.06"/>
</g>
<!-- N33 -->
<g id="node33" class="node">
<title>N33</title>
<polygon fill="#93c47d" stroke="transparent" points="474.5,-950.5 433.5,-950.5 433.5,-900.5 474.5,-900.5 474.5,-950.5"/>
<polygon fill="none" stroke="#93c47d" points="434,-925.5 434,-950.5 475,-950.5 475,-925.5 434,-925.5"/>
<text text-anchor="start" x="439" y="-935.3" font-family="Helvetica,Arial,sans-serif" font-weight="bold" font-size="14.00">Stmt</text>
<polygon fill="none" stroke="#93c47d" points="434,-900.5 434,-925.5 475,-925.5 475,-900.5 434,-900.5"/>
<text text-anchor="start" x="440.5" y="-910.3" font-family="Helvetica,Arial,sans-serif" font-style="italic" font-size="14.00">Print</text>
</g>
<!-- N34 -->
<g id="node34" class="node">
<title>N34</title>
<polygon fill="#9fc5e8" stroke="transparent" points="474.5,-839.5 433.5,-839.5 433.5,-789.5 474.5,-789.5 474.5,-839.5"/>
<polygon fill="none" stroke="#9fc5e8" points="434,-814.5 434,-839.5 475,-839.5 475,-814.5 434,-814.5"/>
<text text-anchor="start" x="439" y="-824.3" font-family="Helvetica,Arial,sans-serif" font-weight="bold" font-size="14.00">Expr</text>
<polygon fill="none" stroke="#9fc5e8" points="434,-789.5 434,-814.5 475,-814.5 475,-789.5 434,-789.5"/>
<text text-anchor="start" x="442.5" y="-799.3" font-family="Helvetica,Arial,sans-serif" font-style="italic" font-size="14.00">Call</text>
</g>
<!-- N33&#45;&gt;N34 -->
<g id="edge36" class="edge">
<title>N33&#45;&gt;N34</title>
<path fill="none" stroke="black" d="M454,-900.31C454,-885.49 454,-866.29 454,-849.91"/>
<polygon fill="black" stroke="black" points="457.5,-849.62 454,-839.62 450.5,-849.62 457.5,-849.62"/>
</g>
<!-- N35 -->
<g id="node35" class="node">
<title>N35</title>
<polygon fill="#a88f85" stroke="#a88f85" points="451.5,-721.5 368.5,-721.5 368.5,-685.5 451.5,-685.5 451.5,-721.5"/>
<text text-anchor="middle" x="410" y="-699.8" font-family="Helvetica,Arial,sans-serif" font-size="14.00">Arguments</text>
</g>
<!-- N34&#45;&gt;N35 -->
<g id="edge33" class="edge">
<title>N34&#45;&gt;N35</title>
<path fill="none" stroke="black" d="M444.23,-789.31C437.29,-772.11 427.97,-749.01 420.8,-731.26"/>
<polygon fill="black" stroke="black" points="423.86,-729.48 416.87,-721.52 417.37,-732.1 423.86,-729.48"/>
</g>
<!-- N36 -->
<g id="node36" class="node">
<title>N36</title>
<polygon fill="#9fc5e8" stroke="transparent" points="528.5,-728.5 469.5,-728.5 469.5,-678.5 528.5,-678.5 528.5,-728.5"/>
<polygon fill="none" stroke="#9fc5e8" points="470,-703.5 470,-728.5 529,-728.5 529,-703.5 470,-703.5"/>
<text text-anchor="start" x="484" y="-713.3" font-family="Helvetica,Arial,sans-serif" font-weight="bold" font-size="14.00">Expr</text>
<polygon fill="none" stroke="#9fc5e8" points="470,-678.5 470,-703.5 529,-703.5 529,-678.5 470,-678.5"/>
<text text-anchor="start" x="475" y="-688.3" font-family="Helvetica,Arial,sans-serif" font-style="italic" font-size="14.00">Variable</text>
</g>
<!-- N34&#45;&gt;N36 -->
<g id="edge34" class="edge">
<title>N34&#45;&gt;N36</title>
<path fill="none" stroke="black" d="M463.99,-789.31C470.22,-774.21 478.33,-754.56 485.18,-737.98"/>
<polygon fill="black" stroke="black" points="488.46,-739.2 489.04,-728.62 481.99,-736.53 488.46,-739.2"/>
</g>
<!-- N38 -->
<g id="node38" class="node">
<title>N38</title>
<polygon fill="#ffcc60" stroke="transparent" points="439.5,-630 380.5,-630 380.5,-555 439.5,-555 439.5,-630"/>
<polygon fill="none" stroke="#ffcc60" points="381,-604.5 381,-629.5 440,-629.5 440,-604.5 381,-604.5"/>
<text text-anchor="start" x="390" y="-614.3" font-family="Helvetica,Arial,sans-serif" font-weight="bold" font-size="14.00">Literal</text>
<polygon fill="none" stroke="#ffcc60" points="381,-579.5 381,-604.5 440,-604.5 440,-579.5 381,-579.5"/>
<text text-anchor="start" x="386" y="-589.3" font-family="Helvetica,Arial,sans-serif" font-style="italic" font-size="14.00">Number</text>
<polygon fill="none" stroke="#ffcc60" points="381,-554.5 381,-579.5 440,-579.5 440,-554.5 381,-554.5"/>
<text text-anchor="start" x="402.5" y="-563.3" font-family="Helvetica,Arial,sans-serif" font-size="14.00">15</text>
</g>
<!-- N35&#45;&gt;N38 -->
<g id="edge35" class="edge">
<title>N35&#45;&gt;N38</title>
<path fill="none" stroke="black" d="M410,-685.47C410,-673.39 410,-656.54 410,-640.56"/>
<polygon fill="black" stroke="black" points="413.5,-640.25 410,-630.25 406.5,-640.25 413.5,-640.25"/>
</g>
<!-- N37 -->
<g id="node37" class="node">
<title>N37</title>
<polygon fill="#c27ba0" stroke="transparent" points="530,-630 468,-630 468,-555 530,-555 530,-630"/>
<polygon fill="none" stroke="#c27ba0" points="468,-604.5 468,-629.5 530,-629.5 530,-604.5 468,-604.5"/>
<text text-anchor="start" x="479" y="-614.3" font-family="Helvetica,Arial,sans-serif" font-weight="bold" font-size="14.00">Token</text>
<polygon fill="none" stroke="#c27ba0" points="468,-579.5 468,-604.5 530,-604.5 530,-579.5 468,-579.5"/>
<text text-anchor="start" x="473" y="-589.3" font-family="Helvetica,Arial,sans-serif" font-style="italic" font-size="14.00">Identifier</text>
<polygon fill="none" stroke="#c27ba0" points="468,-554.5 468,-579.5 530,-579.5 530,-554.5 468,-554.5"/>
<text text-anchor="start" x="491.5" y="-563.3" font-family="Helvetica,Arial,sans-serif" font-size="14.00">fib</text>
</g>
<!-- N36&#45;&gt;N37 -->
<g id="edge32" class="edge">
<title>N36&#45;&gt;N37</title>
<path fill="none" stroke="black" d="M499,-678.31C499,-667.12 499,-653.44 499,-640.36"/>
<polygon fill="black" stroke="black" points="502.5,-640.06 499,-630.06 495.5,-640.06 502.5,-640.06"/>
</g>
</g>
</svg>
