<?xml version="1.0" encoding="UTF-8" standalone="no"?>
<!DOCTYPE svg PUBLIC "-//W3C//DTD SVG 1.1//EN"
 "http://www.w3.org/Graphics/SVG/1.1/DTD/svg11.dtd">
<!-- Generated by graphviz version 2.43.0 (0)
 -->
<!-- Title: Program Pages: 1 -->
<svg width="331pt" height="1107pt"
 viewBox="0.00 0.00 331.00 1107.00" xmlns="http://www.w3.org/2000/svg" xmlns:xlink="http://www.w3.org/1999/xlink">
<g id="graph0" class="graph" transform="scale(1 1) rotate(0) translate(4 1103)">
<title>Program</title>
<polygon fill="white" stroke="transparent" points="-4,4 -4,-1103 327,-1103 327,4 -4,4"/>
<!-- N1 -->
<g id="node1" class="node">
<title>N1</title>
<polygon fill="#93c47d" stroke="transparent" points="162,-1099 121,-1099 121,-999 162,-999 162,-1099"/>
<polygon fill="none" stroke="#93c47d" points="121.5,-1074 121.5,-1099 162.5,-1099 162.5,-1074 121.5,-1074"/>
<text text-anchor="start" x="126.5" y="-1083.8" font-family="Helvetica,Arial,sans-serif" font-weight="bold" font-size="14.00">Stmt</text>
<polygon fill="none" stroke="#93c47d" points="121.5,-1049 121.5,-1074 162.5,-1074 162.5,-1049 121.5,-1049"/>
<text text-anchor="start" x="131.5" y="-1058.8" font-family="Helvetica,Arial,sans-serif" font-style="italic" font-size="14.00">Var</text>
<polygon fill="none" stroke="#93c47d" points="121.5,-1024 121.5,-1049 162.5,-1049 162.5,-1024 121.5,-1024"/>
<text text-anchor="start" x="132.5" y="-1032.8" font-family="Helvetica,Arial,sans-serif" font-size="14.00">var</text>
<polygon fill="none" stroke="#93c47d" points="121.5,-999 121.5,-1024 162.5,-1024 162.5,-999 121.5,-999"/>
<text text-anchor="start" x="137.5" y="-1007.8" font-family="Helvetica,Arial,sans-serif" font-size="14.00">=</text>
</g>
<!-- N2 -->
<g id="node2" class="node">
<title>N2</title>
<polygon fill="#c27ba0" stroke="transparent" points="135.5,-963 73.5,-963 73.5,-888 135.5,-888 135.5,-963"/>
<polygon fill="none" stroke="#c27ba0" points="73.5,-937.5 73.5,-962.5 135.5,-962.5 135.5,-937.5 73.5,-937.5"/>
<text text-anchor="start" x="84.5" y="-947.3" font-family="Helvetica,Arial,sans-serif" font-weight="bold" font-size="14.00">Token</text>
<polygon fill="none" stroke="#c27ba0" points="73.5,-912.5 73.5,-937.5 135.5,-937.5 135.5,-912.5 73.5,-912.5"/>
<text text-anchor="start" x="78.5" y="-922.3" font-family="Helvetica,Arial,sans-serif" font-style="italic" font-size="14.00">Identifier</text>
<polygon fill="none" stroke="#c27ba0" points="73.5,-887.5 73.5,-912.5 135.5,-912.5 135.5,-887.5 73.5,-887.5"/>
<text text-anchor="start" x="100.5" y="-896.3" font-family="Helvetica,Arial,sans-serif" font-size="14.00">a</text>
</g>
<!-- N1&#45;&gt;N2 -->
<g id="edge19" class="edge">
<title>N1&#45;&gt;N2</title>
<path fill="none" stroke="black" d="M126.56,-998.93C123.93,-990.32 121.21,-981.37 118.61,-972.84"/>
<polygon fill="black" stroke="black" points="121.89,-971.59 115.63,-963.04 115.19,-973.63 121.89,-971.59"/>
</g>
<!-- N3 -->
<g id="node3" class="node">
<title>N3</title>
<polygon fill="#9fc5e8" stroke="transparent" points="203,-963 154,-963 154,-888 203,-888 203,-963"/>
<polygon fill="none" stroke="#9fc5e8" points="154.5,-937.5 154.5,-962.5 203.5,-962.5 203.5,-937.5 154.5,-937.5"/>
<text text-anchor="start" x="163.5" y="-947.3" font-family="Helvetica,Arial,sans-serif" font-weight="bold" font-size="14.00">Expr</text>
<polygon fill="none" stroke="#9fc5e8" points="154.5,-912.5 154.5,-937.5 203.5,-937.5 203.5,-912.5 154.5,-912.5"/>
<text text-anchor="start" x="159.5" y="-922.3" font-family="Helvetica,Arial,sans-serif" font-style="italic" font-size="14.00">Binary</text>
<polygon fill="none" stroke="#9fc5e8" points="154.5,-887.5 154.5,-912.5 203.5,-912.5 203.5,-887.5 154.5,-887.5"/>
<text text-anchor="start" x="170.5" y="-896.3" font-family="Helvetica,Arial,sans-serif" font-size="14.00">&lt;=</text>
</g>
<!-- N1&#45;&gt;N3 -->
<g id="edge20" class="edge">
<title>N1&#45;&gt;N3</title>
<path fill="none" stroke="black" d="M156.44,-998.93C159.07,-990.32 161.79,-981.37 164.39,-972.84"/>
<polygon fill="black" stroke="black" points="167.81,-973.63 167.37,-963.04 161.11,-971.59 167.81,-973.63"/>
</g>
<!-- N4 -->
<g id="node4" class="node">
<title>N4</title>
<polygon fill="#9fc5e8" stroke="transparent" points="167,-852 118,-852 118,-777 167,-777 167,-852"/>
<polygon fill="none" stroke="#9fc5e8" points="118.5,-826.5 118.5,-851.5 167.5,-851.5 167.5,-826.5 118.5,-826.5"/>
<text text-anchor="start" x="127.5" y="-836.3" font-family="Helvetica,Arial,sans-serif" font-weight="bold" font-size="14.00">Expr</text>
<polygon fill="none" stroke="#9fc5e8" points="118.5,-801.5 118.5,-826.5 167.5,-826.5 167.5,-801.5 118.5,-801.5"/>
<text text-anchor="start" x="123.5" y="-811.3" font-family="Helvetica,Arial,sans-serif" font-style="italic" font-size="14.00">Binary</text>
<polygon fill="none" stroke="#9fc5e8" points="118.5,-776.5 118.5,-801.5 167.5,-801.5 167.5,-776.5 118.5,-776.5"/>
<text text-anchor="start" x="138.5" y="-785.3" font-family="Helvetica,Arial,sans-serif" font-size="14.00">+</text>
</g>
<!-- N3&#45;&gt;N4 -->
<g id="edge17" class="edge">
<title>N3&#45;&gt;N4</title>
<path fill="none" stroke="black" d="M166.41,-887.9C163.65,-879.54 160.68,-870.55 157.81,-861.85"/>
<polygon fill="black" stroke="black" points="161.08,-860.59 154.62,-852.19 154.43,-862.78 161.08,-860.59"/>
</g>
<!-- N21 -->
<g id="node21" class="node">
<title>N21</title>
<polygon fill="#ffcc60" stroke="transparent" points="244,-852 185,-852 185,-777 244,-777 244,-852"/>
<polygon fill="none" stroke="#ffcc60" points="185.5,-826.5 185.5,-851.5 244.5,-851.5 244.5,-826.5 185.5,-826.5"/>
<text text-anchor="start" x="194.5" y="-836.3" font-family="Helvetica,Arial,sans-serif" font-weight="bold" font-size="14.00">Literal</text>
<polygon fill="none" stroke="#ffcc60" points="185.5,-801.5 185.5,-826.5 244.5,-826.5 244.5,-801.5 185.5,-801.5"/>
<text text-anchor="start" x="190.5" y="-811.3" font-family="Helvetica,Arial,sans-serif" font-style="italic" font-size="14.00">Number</text>
<polygon fill="none" stroke="#ffcc60" points="185.5,-776.5 185.5,-801.5 244.5,-801.5 244.5,-776.5 185.5,-776.5"/>
<text text-anchor="start" x="207" y="-785.3" font-family="Helvetica,Arial,sans-serif" font-size="14.00">20</text>
</g>
<!-- N3&#45;&gt;N21 -->
<g id="edge18" class="edge">
<title>N3&#45;&gt;N21</title>
<path fill="none" stroke="black" d="M190.59,-887.9C193.35,-879.54 196.32,-870.55 199.19,-861.85"/>
<polygon fill="black" stroke="black" points="202.57,-862.78 202.38,-852.19 195.92,-860.59 202.57,-862.78"/>
</g>
<!-- N5 -->
<g id="node5" class="node">
<title>N5</title>
<polygon fill="#9fc5e8" stroke="transparent" points="129,-741 80,-741 80,-666 129,-666 129,-741"/>
<polygon fill="none" stroke="#9fc5e8" points="80.5,-715.5 80.5,-740.5 129.5,-740.5 129.5,-715.5 80.5,-715.5"/>
<text text-anchor="start" x="89.5" y="-725.3" font-family="Helvetica,Arial,sans-serif" font-weight="bold" font-size="14.00">Expr</text>
<polygon fill="none" stroke="#9fc5e8" points="80.5,-690.5 80.5,-715.5 129.5,-715.5 129.5,-690.5 80.5,-690.5"/>
<text text-anchor="start" x="85.5" y="-700.3" font-family="Helvetica,Arial,sans-serif" font-style="italic" font-size="14.00">Binary</text>
<polygon fill="none" stroke="#9fc5e8" points="80.5,-665.5 80.5,-690.5 129.5,-690.5 129.5,-665.5 80.5,-665.5"/>
<text text-anchor="start" x="102" y="-674.3" font-family="Helvetica,Arial,sans-serif" font-size="14.00">*</text>
</g>
<!-- N4&#45;&gt;N5 -->
<g id="edge15" class="edge">
<title>N4&#45;&gt;N5</title>
<path fill="none" stroke="black" d="M129.74,-776.9C126.83,-768.54 123.69,-759.55 120.66,-750.85"/>
<polygon fill="black" stroke="black" points="123.89,-749.48 117.29,-741.19 117.28,-751.78 123.89,-749.48"/>
</g>
<!-- N8 -->
<g id="node8" class="node">
<title>N8</title>
<polygon fill="#9fc5e8" stroke="transparent" points="214,-741 147,-741 147,-666 214,-666 214,-741"/>
<polygon fill="none" stroke="#9fc5e8" points="147.5,-715.5 147.5,-740.5 214.5,-740.5 214.5,-715.5 147.5,-715.5"/>
<text text-anchor="start" x="165.5" y="-725.3" font-family="Helvetica,Arial,sans-serif" font-weight="bold" font-size="14.00">Expr</text>
<polygon fill="none" stroke="#9fc5e8" points="147.5,-690.5 147.5,-715.5 214.5,-715.5 214.5,-690.5 147.5,-690.5"/>
<text text-anchor="start" x="152.5" y="-700.3" font-family="Helvetica,Arial,sans-serif" font-style="italic" font-size="14.00">Grouping</text>
<polygon fill="none" stroke="#9fc5e8" points="147.5,-665.5 147.5,-690.5 214.5,-690.5 214.5,-665.5 147.5,-665.5"/>
<text text-anchor="start" x="176" y="-674.3" font-family="Helvetica,Arial,sans-serif" font-size="14.00">()</text>
</g>
<!-- N4&#45;&gt;N8 -->
<g id="edge16" class="edge">
<title>N4&#45;&gt;N8</title>
<path fill="none" stroke="black" d="M155.26,-776.9C158.17,-768.54 161.31,-759.55 164.34,-750.85"/>
<polygon fill="black" stroke="black" points="167.72,-751.78 167.71,-741.19 161.11,-749.48 167.72,-751.78"/>
</g>
<!-- N6 -->
<g id="node6" class="node">
<title>N6</title>
<polygon fill="#ffcc60" stroke="transparent" points="59,-630 0,-630 0,-555 59,-555 59,-630"/>
<polygon fill="none" stroke="#ffcc60" points="0.5,-604.5 0.5,-629.5 59.5,-629.5 59.5,-604.5 0.5,-604.5"/>
<text text-anchor="start" x="9.5" y="-614.3" font-family="Helvetica,Arial,sans-serif" font-weight="bold" font-size="14.00">Literal</text>
<polygon fill="none" stroke="#ffcc60" points="0.5,-579.5 0.5,-604.5 59.5,-604.5 59.5,-579.5 0.5,-579.5"/>
<text text-anchor="start" x="5.5" y="-589.3" font-family="Helvetica,Arial,sans-serif" font-style="italic" font-size="14.00">Number</text>
<polygon fill="none" stroke="#ffcc60" points="0.5,-554.5 0.5,-579.5 59.5,-579.5 59.5,-554.5 0.5,-554.5"/>
<text text-anchor="start" x="26" y="-563.3" font-family="Helvetica,Arial,sans-serif" font-size="14.00">7</text>
</g>
<!-- N5&#45;&gt;N6 -->
<g id="edge1" class="edge">
<title>N5&#45;&gt;N6</title>
<path fill="none" stroke="black" d="M79.94,-666.81C73.73,-657.78 66.97,-647.96 60.49,-638.53"/>
<polygon fill="black" stroke="black" points="63.18,-636.27 54.63,-630.02 57.41,-640.24 63.18,-636.27"/>
</g>
<!-- N7 -->
<g id="node7" class="node">
<title>N7</title>
<polygon fill="#ffcc60" stroke="transparent" points="136,-630 77,-630 77,-555 136,-555 136,-630"/>
<polygon fill="none" stroke="#ffcc60" points="77.5,-604.5 77.5,-629.5 136.5,-629.5 136.5,-604.5 77.5,-604.5"/>
<text text-anchor="start" x="86.5" y="-614.3" font-family="Helvetica,Arial,sans-serif" font-weight="bold" font-size="14.00">Literal</text>
<polygon fill="none" stroke="#ffcc60" points="77.5,-579.5 77.5,-604.5 136.5,-604.5 136.5,-579.5 77.5,-579.5"/>
<text text-anchor="start" x="82.5" y="-589.3" font-family="Helvetica,Arial,sans-serif" font-style="italic" font-size="14.00">Number</text>
<polygon fill="none" stroke="#ffcc60" points="77.5,-554.5 77.5,-579.5 136.5,-579.5 136.5,-554.5 77.5,-554.5"/>
<text text-anchor="start" x="103" y="-563.3" font-family="Helvetica,Arial,sans-serif" font-size="14.00">1</text>
</g>
<!-- N5&#45;&gt;N7 -->
<g id="edge2" class="edge">
<title>N5&#45;&gt;N7</title>
<path fill="none" stroke="black" d="M105.17,-665.9C105.32,-657.72 105.48,-648.94 105.64,-640.41"/>
<polygon fill="black" stroke="black" points="109.14,-640.25 105.83,-630.19 102.14,-640.12 109.14,-640.25"/>
</g>
<!-- N9 -->
<g id="node9" class="node">
<title>N9</title>
<polygon fill="#9fc5e8" stroke="transparent" points="205,-630 156,-630 156,-555 205,-555 205,-630"/>
<polygon fill="none" stroke="#9fc5e8" points="156.5,-604.5 156.5,-629.5 205.5,-629.5 205.5,-604.5 156.5,-604.5"/>
<text text-anchor="start" x="165.5" y="-614.3" font-family="Helvetica,Arial,sans-serif" font-weight="bold" font-size="14.00">Expr</text>
<polygon fill="none" stroke="#9fc5e8" points="156.5,-579.5 156.5,-604.5 205.5,-604.5 205.5,-579.5 156.5,-579.5"/>
<text text-anchor="start" x="161.5" y="-589.3" font-family="Helvetica,Arial,sans-serif" font-style="italic" font-size="14.00">Binary</text>
<polygon fill="none" stroke="#9fc5e8" points="156.5,-554.5 156.5,-579.5 205.5,-579.5 205.5,-554.5 156.5,-554.5"/>
<text text-anchor="start" x="178.5" y="-563.3" font-family="Helvetica,Arial,sans-serif" font-size="14.00">&#45;</text>
</g>
<!-- N8&#45;&gt;N9 -->
<g id="edge14" class="edge">
<title>N8&#45;&gt;N9</title>
<path fill="none" stroke="black" d="M180.5,-665.9C180.5,-657.72 180.5,-648.94 180.5,-640.41"/>
<polygon fill="black" stroke="black" points="184,-640.19 180.5,-630.19 177,-640.19 184,-640.19"/>
</g>
<!-- N10 -->
<g id="node10" class="node">
<title>N10</title>
<polygon fill="#9fc5e8" stroke="transparent" points="169,-519 120,-519 120,-444 169,-444 169,-519"/>
<polygon fill="none" stroke="#9fc5e8" points="120.5,-493.5 120.5,-518.5 169.5,-518.5 169.5,-493.5 120.5,-493.5"/>
<text text-anchor="start" x="129.5" y="-503.3" font-family="Helvetica,Arial,sans-serif" font-weight="bold" font-size="14.00">Expr</text>
<polygon fill="none" stroke="#9fc5e8" points="120.5,-468.5 120.5,-493.5 169.5,-493.5 169.5,-468.5 120.5,-468.5"/>
<text text-anchor="start" x="125.5" y="-478.3" font-family="Helvetica,Arial,sans-serif" font-style="italic" font-size="14.00">Binary</text>
<polygon fill="none" stroke="#9fc5e8" points="120.5,-443.5 120.5,-468.5 169.5,-468.5 169.5,-443.5 120.5,-443.5"/>
<text text-anchor="start" x="142.5" y="-452.3" font-family="Helvetica,Arial,sans-serif" font-size="14.00">&#45;</text>
</g>
<!-- N9&#45;&gt;N10 -->
<g id="edge12" class="edge">
<title>N9&#45;&gt;N10</title>
<path fill="none" stroke="black" d="M168.41,-554.9C165.65,-546.54 162.68,-537.55 159.81,-528.85"/>
<polygon fill="black" stroke="black" points="163.08,-527.59 156.62,-519.19 156.43,-529.78 163.08,-527.59"/>
</g>
<!-- N18 -->
<g id="node18" class="node">
<title>N18</title>
<polygon fill="#9fc5e8" stroke="transparent" points="241,-519 192,-519 192,-444 241,-444 241,-519"/>
<polygon fill="none" stroke="#9fc5e8" points="192.5,-493.5 192.5,-518.5 241.5,-518.5 241.5,-493.5 192.5,-493.5"/>
<text text-anchor="start" x="201.5" y="-503.3" font-family="Helvetica,Arial,sans-serif" font-weight="bold" font-size="14.00">Expr</text>
<polygon fill="none" stroke="#9fc5e8" points="192.5,-468.5 192.5,-493.5 241.5,-493.5 241.5,-468.5 192.5,-468.5"/>
<text text-anchor="start" x="197.5" y="-478.3" font-family="Helvetica,Arial,sans-serif" font-style="italic" font-size="14.00">Binary</text>
<polygon fill="none" stroke="#9fc5e8" points="192.5,-443.5 192.5,-468.5 241.5,-468.5 241.5,-443.5 192.5,-443.5"/>
<text text-anchor="start" x="215" y="-452.3" font-family="Helvetica,Arial,sans-serif" font-size="14.00">/</text>
</g>
<!-- N9&#45;&gt;N18 -->
<g id="edge13" class="edge">
<title>N9&#45;&gt;N18</title>
<path fill="none" stroke="black" d="M192.59,-554.9C195.35,-546.54 198.32,-537.55 201.19,-528.85"/>
<polygon fill="black" stroke="black" points="204.57,-529.78 204.38,-519.19 197.92,-527.59 204.57,-529.78"/>
</g>
<!-- N11 -->
<g id="node11" class="node">
<title>N11</title>
<polygon fill="#ffcc60" stroke="transparent" points="102,-408 43,-408 43,-333 102,-333 102,-408"/>
<polygon fill="none" stroke="#ffcc60" points="43.5,-382.5 43.5,-407.5 102.5,-407.5 102.5,-382.5 43.5,-382.5"/>
<text text-anchor="start" x="52.5" y="-392.3" font-family="Helvetica,Arial,sans-serif" font-weight="bold" font-size="14.00">Literal</text>
<polygon fill="none" stroke="#ffcc60" points="43.5,-357.5 43.5,-382.5 102.5,-382.5 102.5,-357.5 43.5,-357.5"/>
<text text-anchor="start" x="48.5" y="-367.3" font-family="Helvetica,Arial,sans-serif" font-style="italic" font-size="14.00">Number</text>
<polygon fill="none" stroke="#ffcc60" points="43.5,-332.5 43.5,-357.5 102.5,-357.5 102.5,-332.5 43.5,-332.5"/>
<text text-anchor="start" x="69" y="-341.3" font-family="Helvetica,Arial,sans-serif" font-size="14.00">3</text>
</g>
<!-- N10&#45;&gt;N11 -->
<g id="edge8" class="edge">
<title>N10&#45;&gt;N11</title>
<path fill="none" stroke="black" d="M120.32,-443.9C114.57,-435.18 108.35,-425.78 102.37,-416.73"/>
<polygon fill="black" stroke="black" points="105.17,-414.6 96.73,-408.19 99.33,-418.46 105.17,-414.6"/>
</g>
<!-- N12 -->
<g id="node12" class="node">
<title>N12</title>
<polygon fill="#9fc5e8" stroke="transparent" points="169,-408 120,-408 120,-333 169,-333 169,-408"/>
<polygon fill="none" stroke="#9fc5e8" points="120.5,-382.5 120.5,-407.5 169.5,-407.5 169.5,-382.5 120.5,-382.5"/>
<text text-anchor="start" x="129.5" y="-392.3" font-family="Helvetica,Arial,sans-serif" font-weight="bold" font-size="14.00">Expr</text>
<polygon fill="none" stroke="#9fc5e8" points="120.5,-357.5 120.5,-382.5 169.5,-382.5 169.5,-357.5 120.5,-357.5"/>
<text text-anchor="start" x="125.5" y="-367.3" font-family="Helvetica,Arial,sans-serif" font-style="italic" font-size="14.00">Binary</text>
<polygon fill="none" stroke="#9fc5e8" points="120.5,-332.5 120.5,-357.5 169.5,-357.5 169.5,-332.5 120.5,-332.5"/>
<text text-anchor="start" x="142" y="-341.3" font-family="Helvetica,Arial,sans-serif" font-size="14.00">*</text>
</g>
<!-- N10&#45;&gt;N12 -->
<g id="edge9" class="edge">
<title>N10&#45;&gt;N12</title>
<path fill="none" stroke="black" d="M144.5,-443.9C144.5,-435.72 144.5,-426.94 144.5,-418.41"/>
<polygon fill="black" stroke="black" points="148,-418.19 144.5,-408.19 141,-418.19 148,-418.19"/>
</g>
<!-- N13 -->
<g id="node13" class="node">
<title>N13</title>
<polygon fill="#ffcc60" stroke="transparent" points="134,-297 75,-297 75,-222 134,-222 134,-297"/>
<polygon fill="none" stroke="#ffcc60" points="75.5,-271.5 75.5,-296.5 134.5,-296.5 134.5,-271.5 75.5,-271.5"/>
<text text-anchor="start" x="84.5" y="-281.3" font-family="Helvetica,Arial,sans-serif" font-weight="bold" font-size="14.00">Literal</text>
<polygon fill="none" stroke="#ffcc60" points="75.5,-246.5 75.5,-271.5 134.5,-271.5 134.5,-246.5 75.5,-246.5"/>
<text text-anchor="start" x="80.5" y="-256.3" font-family="Helvetica,Arial,sans-serif" font-style="italic" font-size="14.00">Number</text>
<polygon fill="none" stroke="#ffcc60" points="75.5,-221.5 75.5,-246.5 134.5,-246.5 134.5,-221.5 75.5,-221.5"/>
<text text-anchor="start" x="101" y="-230.3" font-family="Helvetica,Arial,sans-serif" font-size="14.00">8</text>
</g>
<!-- N12&#45;&gt;N13 -->
<g id="edge6" class="edge">
<title>N12&#45;&gt;N13</title>
<path fill="none" stroke="black" d="M131.07,-332.9C128,-324.54 124.7,-315.55 121.51,-306.85"/>
<polygon fill="black" stroke="black" points="124.69,-305.37 117.96,-297.19 118.12,-307.78 124.69,-305.37"/>
</g>
<!-- N14 -->
<g id="node14" class="node">
<title>N14</title>
<polygon fill="#9fc5e8" stroke="transparent" points="219,-297 152,-297 152,-222 219,-222 219,-297"/>
<polygon fill="none" stroke="#9fc5e8" points="152.5,-271.5 152.5,-296.5 219.5,-296.5 219.5,-271.5 152.5,-271.5"/>
<text text-anchor="start" x="170.5" y="-281.3" font-family="Helvetica,Arial,sans-serif" font-weight="bold" font-size="14.00">Expr</text>
<polygon fill="none" stroke="#9fc5e8" points="152.5,-246.5 152.5,-271.5 219.5,-271.5 219.5,-246.5 152.5,-246.5"/>
<text text-anchor="start" x="157.5" y="-256.3" font-family="Helvetica,Arial,sans-serif" font-style="italic" font-size="14.00">Grouping</text>
<polygon fill="none" stroke="#9fc5e8" points="152.5,-221.5 152.5,-246.5 219.5,-246.5 219.5,-221.5 152.5,-221.5"/>
<text text-anchor="start" x="181" y="-230.3" font-family="Helvetica,Arial,sans-serif" font-size="14.00">()</text>
</g>
<!-- N12&#45;&gt;N14 -->
<g id="edge7" class="edge">
<title>N12&#45;&gt;N14</title>
<path fill="none" stroke="black" d="M158.27,-332.9C161.44,-324.45 164.86,-315.36 168.17,-306.57"/>
<polygon fill="black" stroke="black" points="171.46,-307.78 171.7,-297.19 164.9,-305.32 171.46,-307.78"/>
</g>
<!-- N15 -->
<g id="node15" class="node">
<title>N15</title>
<polygon fill="#9fc5e8" stroke="transparent" points="210,-186 161,-186 161,-111 210,-111 210,-186"/>
<polygon fill="none" stroke="#9fc5e8" points="161.5,-160.5 161.5,-185.5 210.5,-185.5 210.5,-160.5 161.5,-160.5"/>
<text text-anchor="start" x="170.5" y="-170.3" font-family="Helvetica,Arial,sans-serif" font-weight="bold" font-size="14.00">Expr</text>
<polygon fill="none" stroke="#9fc5e8" points="161.5,-135.5 161.5,-160.5 210.5,-160.5 210.5,-135.5 161.5,-135.5"/>
<text text-anchor="start" x="166.5" y="-145.3" font-family="Helvetica,Arial,sans-serif" font-style="italic" font-size="14.00">Binary</text>
<polygon fill="none" stroke="#9fc5e8" points="161.5,-110.5 161.5,-135.5 210.5,-135.5 210.5,-110.5 161.5,-110.5"/>
<text text-anchor="start" x="181.5" y="-119.3" font-family="Helvetica,Arial,sans-serif" font-size="14.00">+</text>
</g>
<!-- N14&#45;&gt;N15 -->
<g id="edge5" class="edge">
<title>N14&#45;&gt;N15</title>
<path fill="none" stroke="black" d="M185.5,-221.9C185.5,-213.72 185.5,-204.94 185.5,-196.41"/>
<polygon fill="black" stroke="black" points="189,-196.19 185.5,-186.19 182,-196.19 189,-196.19"/>
</g>
<!-- N16 -->
<g id="node16" class="node">
<title>N16</title>
<polygon fill="#ffcc60" stroke="transparent" points="177,-75 118,-75 118,0 177,0 177,-75"/>
<polygon fill="none" stroke="#ffcc60" points="118.5,-49.5 118.5,-74.5 177.5,-74.5 177.5,-49.5 118.5,-49.5"/>
<text text-anchor="start" x="127.5" y="-59.3" font-family="Helvetica,Arial,sans-serif" font-weight="bold" font-size="14.00">Literal</text>
<polygon fill="none" stroke="#ffcc60" points="118.5,-24.5 118.5,-49.5 177.5,-49.5 177.5,-24.5 118.5,-24.5"/>
<text text-anchor="start" x="123.5" y="-34.3" font-family="Helvetica,Arial,sans-serif" font-style="italic" font-size="14.00">Number</text>
<polygon fill="none" stroke="#ffcc60" points="118.5,0.5 118.5,-24.5 177.5,-24.5 177.5,0.5 118.5,0.5"/>
<text text-anchor="start" x="140" y="-8.3" font-family="Helvetica,Arial,sans-serif" font-size="14.00">16</text>
</g>
<!-- N15&#45;&gt;N16 -->
<g id="edge3" class="edge">
<title>N15&#45;&gt;N16</title>
<path fill="none" stroke="black" d="M172.74,-110.9C169.83,-102.54 166.69,-93.55 163.66,-84.85"/>
<polygon fill="black" stroke="black" points="166.89,-83.48 160.29,-75.19 160.28,-85.78 166.89,-83.48"/>
</g>
<!-- N17 -->
<g id="node17" class="node">
<title>N17</title>
<polygon fill="#ffcc60" stroke="transparent" points="254,-75 195,-75 195,0 254,0 254,-75"/>
<polygon fill="none" stroke="#ffcc60" points="195.5,-49.5 195.5,-74.5 254.5,-74.5 254.5,-49.5 195.5,-49.5"/>
<text text-anchor="start" x="204.5" y="-59.3" font-family="Helvetica,Arial,sans-serif" font-weight="bold" font-size="14.00">Literal</text>
<polygon fill="none" stroke="#ffcc60" points="195.5,-24.5 195.5,-49.5 254.5,-49.5 254.5,-24.5 195.5,-24.5"/>
<text text-anchor="start" x="200.5" y="-34.3" font-family="Helvetica,Arial,sans-serif" font-style="italic" font-size="14.00">Number</text>
<polygon fill="none" stroke="#ffcc60" points="195.5,0.5 195.5,-24.5 254.5,-24.5 254.5,0.5 195.5,0.5"/>
<text text-anchor="start" x="221" y="-8.3" font-family="Helvetica,Arial,sans-serif" font-size="14.00">3</text>
</g>
<!-- N15&#45;&gt;N17 -->
<g id="edge4" class="edge">
<title>N15&#45;&gt;N17</title>
<path fill="none" stroke="black" d="M198.59,-110.9C201.59,-102.54 204.8,-93.55 207.92,-84.85"/>
<polygon fill="black" stroke="black" points="211.3,-85.78 211.37,-75.19 204.71,-83.42 211.3,-85.78"/>
</g>
<!-- N19 -->
<g id="node19" class="node">
<title>N19</title>
<polygon fill="#ffcc60" stroke="transparent" points="246,-408 187,-408 187,-333 246,-333 246,-408"/>
<polygon fill="none" stroke="#ffcc60" points="187.5,-382.5 187.5,-407.5 246.5,-407.5 246.5,-382.5 187.5,-382.5"/>
<text text-anchor="start" x="196.5" y="-392.3" font-family="Helvetica,Arial,sans-serif" font-weight="bold" font-size="14.00">Literal</text>
<polygon fill="none" stroke="#ffcc60" points="187.5,-357.5 187.5,-382.5 246.5,-382.5 246.5,-357.5 187.5,-357.5"/>
<text text-anchor="start" x="192.5" y="-367.3" font-family="Helvetica,Arial,sans-serif" font-style="italic" font-size="14.00">Number</text>
<polygon fill="none" stroke="#ffcc60" points="187.5,-332.5 187.5,-357.5 246.5,-357.5 246.5,-332.5 187.5,-332.5"/>
<text text-anchor="start" x="213" y="-341.3" font-family="Helvetica,Arial,sans-serif" font-size="14.00">4</text>
</g>
<!-- N18&#45;&gt;N19 -->
<g id="edge10" class="edge">
<title>N18&#45;&gt;N19</title>
<path fill="none" stroke="black" d="M216.5,-443.9C216.5,-435.72 216.5,-426.94 216.5,-418.41"/>
<polygon fill="black" stroke="black" points="220,-418.19 216.5,-408.19 213,-418.19 220,-418.19"/>
</g>
<!-- N20 -->
<g id="node20" class="node">
<title>N20</title>
<polygon fill="#ffcc60" stroke="transparent" points="323,-408 264,-408 264,-333 323,-333 323,-408"/>
<polygon fill="none" stroke="#ffcc60" points="264.5,-382.5 264.5,-407.5 323.5,-407.5 323.5,-382.5 264.5,-382.5"/>
<text text-anchor="start" x="273.5" y="-392.3" font-family="Helvetica,Arial,sans-serif" font-weight="bold" font-size="14.00">Literal</text>
<polygon fill="none" stroke="#ffcc60" points="264.5,-357.5 264.5,-382.5 323.5,-382.5 323.5,-357.5 264.5,-357.5"/>
<text text-anchor="start" x="269.5" y="-367.3" font-family="Helvetica,Arial,sans-serif" font-style="italic" font-size="14.00">Number</text>
<polygon fill="none" stroke="#ffcc60" points="264.5,-332.5 264.5,-357.5 323.5,-357.5 323.5,-332.5 264.5,-332.5"/>
<text text-anchor="start" x="290" y="-341.3" font-family="Helvetica,Arial,sans-serif" font-size="14.00">7</text>
</g>
<!-- N18&#45;&gt;N20 -->
<g id="edge11" class="edge">
<title>N18&#45;&gt;N20</title>
<path fill="none" stroke="black" d="M241.07,-445.71C247.61,-436.46 254.77,-426.33 261.63,-416.61"/>
<polygon fill="black" stroke="black" points="264.65,-418.4 267.57,-408.21 258.94,-414.36 264.65,-418.4"/>
</g>
</g>
</svg>
